<svg width="192" height="192" viewBox="0 0 192 192" xmlns="http://www.w3.org/2000/svg">
  <!-- Background Circle -->
  <circle cx="96" cy="96" r="88" fill="#2196F3" stroke="#1976D2" stroke-width="4"/>
  
  <!-- Calendar Grid Background -->
  <rect x="32" y="48" width="128" height="96" rx="8" fill="#FFFFFF" stroke="#E0E0E0" stroke-width="2"/>
  
  <!-- Calendar Header -->
  <rect x="32" y="48" width="128" height="24" rx="8" fill="#1976D2"/>
  
  <!-- Calendar Holes -->
  <circle cx="56" cy="44" r="4" fill="#757575"/>
  <circle cx="136" cy="44" r="4" fill="#757575"/>
  
  <!-- Grid Lines Vertical -->
  <line x1="64" y1="72" x2="64" y2="144" stroke="#E0E0E0" stroke-width="1"/>
  <line x1="96" y1="72" x2="96" y2="144" stroke="#E0E0E0" stroke-width="1"/>
  <line x1="128" y1="72" x2="128" y2="144" stroke="#E0E0E0" stroke-width="1"/>
  
  <!-- Grid Lines Horizontal -->
  <line x1="32" y1="88" x2="160" y2="88" stroke="#E0E0E0" stroke-width="1"/>
  <line x1="32" y1="104" x2="160" y2="104" stroke="#E0E0E0" stroke-width="1"/>
  <line x1="32" y1="120" x2="160" y2="120" stroke="#E0E0E0" stroke-width="1"/>
  
  <!-- Time Slots -->
  <rect x="36" y="76" width="24" height="8" rx="2" fill="#4CAF50"/>
  <rect x="68" y="92" width="24" height="8" rx="2" fill="#FF9800"/>
  <rect x="100" y="76" width="24" height="8" rx="2" fill="#9C27B0"/>
  <rect x="132" y="108" width="24" height="8" rx="2" fill="#F44336"/>
  <rect x="36" y="124" width="24" height="8" rx="2" fill="#2196F3"/>
  
  <!-- Clock Icon -->
  <circle cx="144" cy="144" r="16" fill="#FFC107" stroke="#FF8F00" stroke-width="2"/>
  <line x1="144" y1="136" x2="144" y2="144" stroke="#FF8F00" stroke-width="2"/>
  <line x1="144" y1="144" x2="150" y2="144" stroke="#FF8F00" stroke-width="2"/>
</svg>